<?xml version="1.0" encoding="UTF-8" standalone="no"?>
<!-- Created with Inkscape (http://www.inkscape.org/) -->
<svg
   xmlns:dc="http://purl.org/dc/elements/1.1/"
   xmlns:cc="http://creativecommons.org/ns#"
   xmlns:rdf="http://www.w3.org/1999/02/22-rdf-syntax-ns#"
   xmlns:svg="http://www.w3.org/2000/svg"
   xmlns="http://www.w3.org/2000/svg"
   xmlns:xlink="http://www.w3.org/1999/xlink"
   xmlns:sodipodi="http://sodipodi.sourceforge.net/DTD/sodipodi-0.dtd"
   xmlns:inkscape="http://www.inkscape.org/namespaces/inkscape"
   width="744.09448819"
   height="1052.3622047"
   id="svg17676"
   sodipodi:version="0.32"
   inkscape:version="0.46"
   sodipodi:docname="kbounce.svg"
   inkscape:output_extension="org.inkscape.output.svg.inkscape">
  <defs
     id="defs17678">
    <linearGradient
       inkscape:collect="always"
       id="linearGradient56318">
      <stop
         style="stop-color:#2e3436;stop-opacity:1;"
         offset="0"
         id="stop56320" />
      <stop
         style="stop-color:#2e3436;stop-opacity:0;"
         offset="1"
         id="stop56322" />
    </linearGradient>
    <linearGradient
       inkscape:collect="always"
       id="linearGradient56281">
      <stop
         style="stop-color:#ffffff;stop-opacity:1;"
         offset="0"
         id="stop56283" />
      <stop
         style="stop-color:#ffffff;stop-opacity:0;"
         offset="1"
         id="stop56285" />
    </linearGradient>
    <filter
       inkscape:collect="always"
       id="filter15319">
      <feGaussianBlur
         inkscape:collect="always"
         stdDeviation="0.11739613"
         id="feGaussianBlur15321" />
    </filter>
    <linearGradient
       id="linearGradient3525"
       inkscape:collect="always">
      <stop
         id="stop3527"
         offset="0"
         style="stop-color:#ffffbf;stop-opacity:1" />
      <stop
         id="stop3529"
         offset="1"
         style="stop-color:#ffff00;stop-opacity:0" />
    </linearGradient>
    <linearGradient
       inkscape:collect="always"
       xlink:href="#linearGradient3525"
       id="linearGradient3415"
       gradientUnits="userSpaceOnUse"
       gradientTransform="matrix(0.6545517,-0.1261174,9.9877929e-2,0.5430539,15.222053,14.676785)"
       x1="42.941635"
       y1="14.575935"
       x2="45.455215"
       y2="21.490788" />
    <filter
       inkscape:collect="always"
       id="filter16292">
      <feGaussianBlur
         inkscape:collect="always"
         stdDeviation="0.16551152"
         id="feGaussianBlur16294" />
    </filter>
    <linearGradient
       id="linearGradient3519"
       inkscape:collect="always">
      <stop
         id="stop3521"
         offset="0"
         style="stop-color:#ffff00;stop-opacity:1" />
      <stop
         id="stop3523"
         offset="1"
         style="stop-color:#ffff00;stop-opacity:0" />
    </linearGradient>
    <radialGradient
       inkscape:collect="always"
       xlink:href="#linearGradient3519"
       id="radialGradient3418"
       gradientUnits="userSpaceOnUse"
       gradientTransform="matrix(0.8930491,0,0,0.7730872,5.4704713,4.9174585)"
       cx="49.238991"
       cy="22.437443"
       fx="49.238991"
       fy="22.437443"
       r="4.9669657" />
    <linearGradient
       id="linearGradient3512">
      <stop
         id="stop3514"
         offset="0"
         style="stop-color:#ffd500;stop-opacity:1" />
      <stop
         style="stop-color:#c36e07;stop-opacity:1;"
         offset="0.47887325"
         id="stop3367" />
      <stop
         id="stop3369"
         offset="0.69906765"
         style="stop-color:#b35910;stop-opacity:1;" />
      <stop
         id="stop3516"
         offset="1"
         style="stop-color:#ac4311;stop-opacity:1" />
    </linearGradient>
    <radialGradient
       inkscape:collect="always"
       xlink:href="#linearGradient3512"
       id="radialGradient3393"
       gradientUnits="userSpaceOnUse"
       gradientTransform="matrix(0.4357779,0.7522958,-0.8653075,0.5012415,48.244715,-25.881438)"
       cx="49.014778"
       cy="23.061453"
       fx="49.014778"
       fy="23.061453"
       r="5.687326" />
    <inkscape:perspective
       sodipodi:type="inkscape:persp3d"
       inkscape:vp_x="0 : 526.18109 : 1"
       inkscape:vp_y="0 : 1000 : 0"
       inkscape:vp_z="744.09448 : 526.18109 : 1"
       inkscape:persp3d-origin="372.04724 : 350.78739 : 1"
       id="perspective17684" />
    <linearGradient
       inkscape:collect="always"
       xlink:href="#linearGradient56281"
       id="linearGradient3221"
       x1="20.570112"
       y1="-13.313561"
       x2="27.328798"
       y2="-8.8524885"
       gradientUnits="userSpaceOnUse" />
    <linearGradient
       inkscape:collect="always"
       xlink:href="#linearGradient56281"
       id="linearGradient56304"
       gradientUnits="userSpaceOnUse"
       gradientTransform="translate(-10.552402,18.770638)"
       x1="36.616982"
       y1="18.616253"
       x2="46.905632"
       y2="39.707981" />
    <linearGradient
       inkscape:collect="always"
       xlink:href="#linearGradient56318"
       id="linearGradient56324"
       x1="45.785595"
       y1="7.9311433"
       x2="44.847382"
       y2="6.9929285"
       gradientUnits="userSpaceOnUse" />
  </defs>
  <sodipodi:namedview
     id="base"
     pagecolor="#ffffff"
     bordercolor="#666666"
     borderopacity="1.0"
     gridtolerance="10000"
     guidetolerance="10"
     objecttolerance="10"
     inkscape:pageopacity="0.0"
     inkscape:pageshadow="2"
     inkscape:zoom="32.988902"
     inkscape:cx="36.64664"
     inkscape:cy="1040.5622"
     inkscape:document-units="px"
     inkscape:current-layer="layer1"
     showgrid="false"
     showguides="true"
     inkscape:guide-bbox="true"
     inkscape:window-width="1280"
     inkscape:window-height="736"
     inkscape:window-x="0"
     inkscape:window-y="0">
    <sodipodi:guide
       orientation="1,0"
       position="-19.537815,1042.0168"
       id="guide17708" />
  </sodipodi:namedview>
  <metadata
     id="metadata17681">
    <rdf:RDF>
      <cc:Work
         rdf:about="">
        <dc:format>image/svg+xml</dc:format>
        <dc:type
           rdf:resource="http://purl.org/dc/dcmitype/StillImage" />
      </cc:Work>
    </rdf:RDF>
  </metadata>
  <g
     inkscape:label="Layer 1"
     inkscape:groupmode="layer"
     id="layer1">
    <g
       id="background"
       transform="translate(-4.8936447,-3.5214364)">
      <rect
         ry="0.023500301"
         rx="0.010179676"
         y="21.490633"
         x="30.517748"
         height="25.581053"
         width="34.556862"
         id="rect42905"
         style="opacity:1;fill:#00438a;fill-opacity:1;fill-rule:nonzero;stroke:none;stroke-width:0.30000001;stroke-linecap:butt;stroke-linejoin:miter;stroke-miterlimit:4;stroke-dasharray:none;stroke-dashoffset:0;stroke-opacity:1" />
      <path
         style="opacity:0.3;fill:#ffffff;fill-opacity:1;fill-rule:nonzero;stroke:none;stroke-width:0.30000001;stroke-linecap:butt;stroke-linejoin:miter;stroke-miterlimit:4;stroke-dasharray:none;stroke-dashoffset:0;stroke-opacity:1"
         d="M 47.946305,22 C 46.746029,22.112563 45.536979,22.168168 44.352555,22.40625 C 43.327107,22.517221 42.13885,22.201765 41.310763,23.003765 C 40.735041,23.40389 40.101876,23.721825 39.415055,23.875 C 39.424758,24.144073 39.674634,24.562539 39.290055,24.6875 C 39.268692,24.84649 38.717295,24.907008 39.008805,24.71875 C 39.336803,24.506391 39.30501,23.81477 38.790055,24 C 38.580229,23.950338 38.450375,24.245265 38.508805,24.28125 C 38.398591,24.454772 38.600567,23.838073 38.383502,24.406756 C 37.883887,25.236471 38.0341,26.319434 38.571305,27.09375 C 38.540635,27.423933 38.006679,27.474394 38.071305,27.84375 C 38.392848,27.674333 38.167182,28.368044 38.477555,28.21875 C 38.610591,28.170236 38.823754,28.415698 38.883805,28.1875 C 38.891525,28.564028 39.454571,28.133889 39.102555,28.03125 C 39.33328,27.882788 39.243902,27.482455 38.977555,27.4375 C 39.701332,26.849603 40.289503,26.064288 41.165055,25.6875 C 42.139449,25.280748 43.19612,25.660132 44.196305,25.75 C 44.477555,25.78125 44.758805,25.8125 45.040055,25.84375 C 44.691144,26.021913 45.414899,26.353147 45.383805,25.96875 C 45.579311,25.942486 45.521486,26.390351 45.321305,26.21875 C 45.342781,26.432366 44.903714,26.137974 44.977555,26.4375 C 45.130578,26.69439 45.474516,26.714737 45.727555,26.8125 C 45.645094,26.951809 45.521137,27.362232 45.821305,27.3125 C 46.238845,27.722281 46.341791,28.336868 46.665055,28.8125 C 46.443142,28.867436 46.854035,29.307059 46.540055,29.25 C 45.983574,30.083093 44.703609,30.492442 43.883805,29.8125 C 43.055602,29.448567 42.162689,29.839471 41.299441,29.75 C 40.256109,29.74484 39.231951,29.528567 38.196305,29.4375 C 37.101639,29.49148 36.131663,30.06747 35.071305,30.28125 C 34.311505,30.387556 33.568839,30.700313 32.946305,31.09375 C 32.641959,30.641105 32.209734,31.218158 32.165055,31.5625 C 32.029475,31.928388 31.525868,31.985495 31.540055,32.4375 C 31.547345,32.918809 30.816399,32.523068 30.852555,33.03125 C 30.743671,33.303049 30.910234,33.628351 30.915055,33.84375 C 30.499354,33.73742 31.025054,34.434467 31.102555,34.03125 C 31.347594,34.189705 31.081186,34.56144 30.852555,34.4375 C 30.984575,34.797361 31.269349,34.16702 31.446305,34.4375 C 31.178707,34.579148 31.592512,34.925668 31.727555,34.71875 C 31.960847,34.760252 31.899327,35.314615 32.227555,35.125 C 33.318271,34.907003 34.401466,34.656401 35.477555,34.375 C 35.505141,34.208897 35.943862,34.188574 35.790055,34.40625 C 35.82199,34.633568 36.263235,34.468386 36.040055,34.3125 C 35.995392,34.125745 36.399347,34.155771 36.227555,34.34375 C 36.461298,34.304418 36.113653,33.826012 36.446305,33.96875 C 36.508225,34.031694 36.442146,34.40631 36.571305,34.15625 C 36.685511,34.082329 37.054064,34.213894 36.946305,33.96875 C 37.059526,33.860034 37.138725,34.059007 37.258805,34 C 37.030565,34.123104 37.252773,34.536609 37.477555,34.375 C 37.633124,34.495592 37.932784,34.250955 37.758805,34.09375 C 37.74019,34.31728 37.348108,34.107567 37.602555,34.03125 C 37.351195,33.763973 38.039776,33.804498 37.852555,34.0625 C 37.979781,33.922313 38.204121,34.27216 37.946305,34.1875 C 37.726464,34.290044 37.899654,34.7953 38.102555,34.5625 C 38.25352,34.779997 38.796592,34.563202 38.758805,34.9375 C 38.555941,34.962338 38.504722,35.272159 38.696305,35.34375 C 38.508744,35.276658 38.213854,35.487537 38.352555,35.6875 C 38.145808,35.804893 37.744819,35.308676 37.696305,35.75 C 37.710611,36.058511 38.334766,36.123168 38.071305,36.46875 C 37.930468,36.458963 37.843484,36.649283 37.977555,36.71875 C 37.816184,36.871044 37.59542,36.528931 37.821305,36.46875 C 37.871149,36.31197 37.682916,36.020451 37.540055,36.21875 C 37.822795,36.404714 37.357087,36.687179 37.227555,36.4375 C 36.378125,37.133511 35.395911,37.637461 34.508805,38.28125 C 33.691081,38.632181 33.291083,39.712951 33.727555,40.5 C 33.861875,40.341203 34.177589,40.695261 33.883805,40.65625 C 33.818816,40.895563 34.148215,41.127028 33.946305,41.34375 C 34.193912,41.097855 34.624392,40.77854 34.946305,41.09375 C 35.951216,41.339519 36.878388,41.806463 37.821305,42.21875 C 37.990497,42.20514 38.383175,42.425107 38.133805,42.59375 C 38.271028,42.742289 38.403948,43.087859 38.665055,42.9375 C 38.698247,43.16014 39.133431,42.941246 38.915055,42.8125 C 39.215852,42.477429 39.729332,42.732128 39.915055,43.0625 C 40.162341,42.763259 40.696632,43.375314 40.227555,43.4375 C 40.072173,43.836275 40.864278,43.977511 40.946305,43.59375 C 40.460962,43.679661 40.802033,42.739378 41.133805,43.09375 C 40.943576,43.255613 41.44216,43.538052 41.321305,43.25 C 41.352176,43.073111 41.710226,43.071306 41.665055,43.28125 C 41.950611,43.336218 42.066685,43.832521 42.415055,43.65625 C 42.701807,43.714892 42.758558,44.068406 43.008805,44.1875 C 42.811171,44.4622 43.216984,44.031856 43.227555,44.25 C 43.817867,44.296567 44.293546,44.877601 44.915055,44.71875 C 45.813382,45.051509 46.884388,45.002269 47.696305,44.46875 C 48.779462,43.704338 49.708218,42.75471 50.665055,41.84375 C 50.728062,41.740985 51.056973,41.447422 50.758805,41.40625 C 50.62893,41.326992 50.470333,41.063267 50.290055,41.1875 C 50.344264,40.885197 49.691975,40.981462 49.852555,40.65625 C 50.272013,40.953609 50.285263,39.858798 49.852555,40.1875 C 49.643623,40.258777 49.529182,40.736352 49.258805,40.5 C 48.814831,40.878062 48.404286,40.027928 47.946305,40.3125 C 47.572934,40.037468 47.628708,40.901678 47.258805,40.71875 C 47.393726,41.033823 46.90778,41.067942 46.727555,40.9375 C 46.857401,41.060324 46.634681,41.330307 46.571305,41.09375 C 46.51223,41.178406 46.58374,41.40371 46.415055,41.375 C 46.708449,41.133611 45.991333,40.995088 46.165055,41.3125 C 46.098462,41.692896 45.48503,41.472712 45.477555,41.875 C 45.276419,41.935415 45.157163,41.633833 45.290055,41.5 C 45.112728,41.494697 45.156322,41.144407 45.321305,41.28125 C 45.640932,40.59454 46.051333,39.957001 46.446305,39.3125 C 46.556035,39.573388 46.889131,39.005416 46.852555,39.34375 C 47.087191,38.912755 47.510885,38.37355 48.071305,38.53125 C 47.790006,38.676833 48.320785,38.771068 48.165055,38.53125 C 48.337323,38.377742 48.657973,38.788045 48.727555,38.46875 C 48.797359,38.802717 49.205258,38.582126 49.383805,38.46875 C 49.421877,38.643069 49.805967,38.832369 49.758805,38.53125 C 49.38461,38.616085 49.808669,38.048109 49.852555,38.40625 C 50.022773,38.780237 50.356921,37.972185 50.477555,38.4375 C 50.532769,38.670282 50.982571,38.654655 50.915055,38.375 C 51.296945,38.804829 51.950963,38.180839 52.321305,38.65625 C 52.623589,38.708153 52.897894,38.528366 53.196305,38.5625 C 52.970489,38.356525 53.513017,38.026595 53.571305,38.34375 C 53.716385,38.394294 53.841218,38.168452 53.977555,38.28125 C 54.011719,38.052716 53.656888,38.116338 53.602555,37.9375 C 53.536294,37.974151 53.137273,38.14615 53.290055,37.90625 C 53.312485,37.773281 53.299324,37.531173 53.102555,37.59375 C 53.032991,37.408498 53.521782,37.516818 53.290055,37.34375 C 53.47509,37.302602 53.400789,36.852503 53.633805,36.96875 C 53.679174,37.258273 53.230523,37.746221 53.727555,37.84375 C 53.98057,37.918167 53.98165,37.513099 53.758805,37.5 C 53.572985,37.324796 54.055534,37.211844 53.915055,37.4375 C 54.054962,37.66663 54.418549,37.641163 54.571305,37.4375 C 54.60254,37.610029 54.956818,37.676151 54.883805,37.4375 C 55.501348,36.583446 55.913824,35.60663 56.477555,34.71875 C 57.062988,34.102559 58.142474,33.352553 57.665055,32.375 C 57.274873,31.870243 56.474546,31.934185 56.040055,32.34375 C 55.046694,32.268927 54.314177,31.494072 53.383805,31.21875 C 52.388318,31.274718 51.723424,32.265575 50.727555,32.28125 C 49.87772,32.410733 48.742951,32.411439 48.290055,31.53125 C 48.477204,31.305363 48.903122,31.535874 49.165055,31.375 C 49.995016,31.260044 50.65864,30.726432 51.258805,30.1875 C 52.049249,29.966923 53.056081,30.398915 53.625818,29.600849 C 54.346142,28.989351 55.1493,28.474358 55.948776,27.971802 C 56.501017,27.599013 57.51665,27.43966 57.821305,28.15625 C 57.955227,28.259906 58.227762,27.9942 58.040055,27.875 C 58.269381,27.61126 58.354609,28.178153 58.571305,28.03125 C 59.007459,28.125834 58.68727,28.870242 59.196305,28.875 C 59.544672,29.10016 58.98049,29.377013 59.133805,29.65625 C 59.276556,29.242406 59.832546,29.755959 59.415055,29.9375 C 59.311671,30.701578 58.854597,31.341575 58.540055,32.03125 C 58.609867,32.504136 58.752314,32.984929 58.472492,33.419753 C 58.131711,34.422717 57.715822,35.3967 57.237093,36.341508 C 56.838419,37.239217 56.244058,38.026112 55.665055,38.8125 C 56.182457,38.558127 56.860515,38.35523 57.008805,37.71875 C 57.229734,37.844918 57.714138,37.838267 57.633805,37.46875 C 57.628027,37.098673 57.792088,36.61594 58.227555,36.59375 C 58.33234,36.465637 58.612385,36.144438 58.290055,36.09375 C 58.185652,35.839045 58.71796,35.60844 58.696305,35.9375 C 58.935346,36.253407 59.3612,35.941409 59.383805,35.625 C 60.007871,35.253281 60.831209,36.144264 60.446305,36.75 C 60.396292,37.805187 60.151302,38.836242 59.977555,39.875 C 59.734277,40.919578 59.433553,41.95721 59.352555,43.03125 C 59.193083,43.408088 58.699474,43.833413 59.040055,44.25 C 59.569036,43.348575 60.158972,42.479943 60.602555,41.53125 C 60.871419,41.06137 61.220207,40.489442 60.977555,39.9375 C 61.443431,40.041406 61.317039,39.024304 61.821305,39.34375 C 61.841393,39.146774 61.904662,38.933454 62.102555,38.84375 C 62.159605,38.659495 61.983981,38.336721 62.227555,38.25 C 62.231219,37.950482 61.963371,37.564019 62.290055,37.34375 C 62.594349,36.501525 62.637115,35.360216 63.578563,34.949496 C 64.439729,34.823385 65.147211,33.870537 64.727555,33.03125 C 64.614451,32.624779 64.064177,32.572407 63.915055,32.1875 C 64.692327,31.78641 64.595874,30.519611 63.758805,30.25 C 63.573733,30.085527 63.316224,29.822794 63.508805,29.5625 C 63.572412,28.628374 63.822038,27.715671 63.883805,26.78125 C 64.028086,25.759753 63.159475,24.896123 63.383805,23.875 C 63.551424,23.316798 63.042736,22.797868 62.483155,22.85681 C 61.643573,22.823372 60.827201,22.596791 60.078485,22.251197 C 59.158575,22.1164 58.254223,22.497297 57.330691,22.4375 C 54.94715,22.405187 52.569822,22.20762 50.196305,22 C 49.446931,21.972924 48.694784,21.939027 47.946305,22 z M 39.790055,24.15625 C 39.86952,24.32796 39.618345,24.076785 39.790055,24.15625 z M 45.352555,25.25 C 45.587389,25.364198 45.095845,25.670643 45.165055,25.375 C 45.268118,25.378718 45.234402,25.201814 45.352555,25.25 z M 45.477555,25.625 C 45.521262,25.780688 45.35341,25.618923 45.477555,25.625 z M 45.321305,25.71875 C 45.548754,25.78581 45.08643,25.896781 45.258805,25.71875 L 45.321305,25.71875 z M 45.883805,27.15625 C 46.013646,27.333847 45.675297,27.131153 45.883805,27.15625 z M 46.227555,27.25 C 46.271223,27.346908 46.54269,27.193196 46.352555,27.375 C 46.54802,27.30084 46.36679,27.713041 46.321305,27.5 C 46.244628,27.749751 45.850357,27.055812 46.227555,27.25 z M 46.696305,27.5 C 46.701821,27.714284 46.494198,28.01019 46.258805,27.875 C 46.550254,27.98367 46.397775,27.246031 46.696305,27.5 z M 38.508805,27.46875 C 38.855622,27.550197 38.415681,28.067824 38.383805,27.65625 C 38.298776,27.591676 38.424525,27.431978 38.508805,27.46875 z M 39.102555,27.71875 C 39.163299,27.967979 38.852938,27.690515 39.102555,27.71875 z M 46.071305,27.84375 C 46.159703,27.997251 46.159703,27.690249 46.071305,27.84375 z M 39.383805,28.34375 C 39.567441,28.45072 39.623673,28.850395 39.883805,28.75 C 39.670199,28.649088 39.700148,28.166835 39.383805,28.34375 z M 46.665055,28.34375 C 46.999047,28.278975 46.50653,28.771492 46.571305,28.4375 L 46.633805,28.34375 L 46.665055,28.34375 z M 39.946305,28.625 C 39.892654,28.822693 40.110621,28.471954 39.946305,28.625 z M 46.758805,28.6875 C 46.714548,28.852117 46.637757,28.671091 46.758805,28.6875 z M 31.071305,32.9375 C 31.281423,32.898461 31.095791,33.254901 31.040055,33 L 31.040055,32.9375 L 31.071305,32.9375 z M 31.383805,34.0625 C 31.613076,34.049407 31.167913,34.233564 31.321305,34.0625 L 31.383805,34.0625 z M 38.165055,34.21875 C 38.24452,34.39046 37.993345,34.139285 38.165055,34.21875 z M 38.165055,34.40625 C 38.294896,34.583847 37.956547,34.381153 38.165055,34.40625 z M 37.883805,34.75 L 37.946305,34.875 L 38.040055,34.71875 L 37.883805,34.75 z M 37.571305,34.90625 C 37.554426,35.037592 37.863937,35.060961 37.696305,34.9375 C 37.760702,34.814431 37.582306,34.905815 37.571305,34.90625 z M 58.665055,35.34375 C 58.940637,35.322282 58.457137,35.665915 58.633805,35.375 L 58.633805,35.34375 L 58.665055,35.34375 z M 40.352555,35.90625 C 40.491882,36.151262 39.989742,35.654463 40.352555,35.90625 z M 58.540055,36.125 L 58.540055,36 L 58.508805,36 L 58.540055,36.125 z M 40.758805,36.0625 C 41.102344,36.221923 40.409362,36.154452 40.696305,36.03125 L 40.758805,36.0625 z M 54.227555,37.03125 C 54.614072,37.195009 53.812686,37.570002 54.008805,37.15625 C 54.05928,37.097509 54.135185,37.006825 54.227555,37.03125 z M 53.821305,37.15625 C 53.732907,37.309751 53.732907,37.002749 53.821305,37.15625 z M 62.415055,37.25 C 62.586765,37.329465 62.33559,37.07829 62.415055,37.25 z M 53.165055,37.71875 C 53.305554,37.892818 52.939525,37.698488 53.165055,37.71875 z M 54.040055,37.90625 C 53.861841,38.033238 54.332664,38.142909 54.102555,37.96875 C 54.190118,37.935891 54.075117,37.811995 54.040055,37.90625 z M 49.383805,39.9375 C 48.991331,40.071907 49.723041,40.490869 49.602555,40.0625 C 49.581251,39.988408 49.432544,39.759345 49.383805,39.9375 z M 48.790055,40.3125 L 48.915055,40.40625 L 48.977555,40.25 L 48.915055,40.25 L 48.790055,40.3125 z M 34.258805,40.5 C 34.516052,40.606634 33.947303,40.836736 34.102555,40.5625 L 34.165055,40.5 L 34.258805,40.5 z M 34.508805,40.53125 C 34.638646,40.708847 34.300297,40.506153 34.508805,40.53125 z M 46.508805,40.90625 C 46.560654,41.024535 46.859466,40.792097 46.571305,40.875 L 46.508805,40.90625 z M 50.352555,40.9375 C 50.291861,41.257459 50.703764,40.845556 50.383805,40.90625 L 50.352555,40.9375 z M 51.946305,41.09375 C 51.876396,41.290483 52.371137,41.161116 52.102555,41.09375 L 51.977555,41.0625 L 51.946305,41.09375 z M 34.352555,41.15625 C 34.013951,41.186182 34.43202,41.763618 34.540055,41.40625 L 34.446305,41.25 C 34.431806,41.134606 34.684548,41.381425 34.540055,41.15625 C 34.50474,41.080409 34.399113,41.146118 34.352555,41.15625 z M 52.415055,41.21875 C 52.128186,41.45182 52.805623,41.600764 52.633805,41.28125 C 52.678547,41.157265 52.468098,41.165239 52.415055,41.21875 z M 46.977555,41.34375 C 47.267003,41.42108 46.692815,41.510894 46.946305,41.34375 L 46.977555,41.34375 z M 45.102555,41.46875 C 45.18202,41.64046 44.930845,41.389285 45.102555,41.46875 z M 51.915055,41.5 C 51.811758,41.7724 52.386088,41.600522 52.040055,41.53125 C 52.006257,41.497816 51.955978,41.421144 51.915055,41.5 z M 52.415055,41.53125 C 52.253788,41.724936 52.708326,41.537582 52.446305,41.5 L 52.415055,41.53125 z M 52.633805,41.8125 C 52.653742,42.022425 52.179574,42.094318 52.258805,41.8125 C 51.688451,41.827644 52.326973,42.846813 52.602555,42.3125 C 52.812529,42.180543 52.872484,41.853888 52.633805,41.71875 L 52.633805,41.8125 z M 45.227555,42.03125 C 45.33623,42.14004 45.213088,42.419872 45.133805,42.1875 C 44.884444,42.249516 45.17984,41.93689 45.227555,42.03125 z M 53.165055,42.09375 L 53.258805,42.15625 L 53.258805,42.0625 L 53.165055,42.09375 z M 52.852555,42.3125 L 52.977555,42.25 L 52.852555,42.25 L 52.852555,42.3125 z M 51.696305,42.625 C 51.443512,42.971358 52.105275,43.248836 52.290055,42.9375 C 52.036334,43.002181 51.993395,42.336951 51.696305,42.625 z M 52.696305,42.6875 C 52.510945,42.718229 52.715183,43.135753 52.790055,42.875 C 52.686406,42.910359 52.848939,42.52755 52.696305,42.6875 z M 41.258805,42.96875 L 41.258805,43.09375 C 41.24401,43.083354 41.178964,42.939374 41.258805,42.96875 z M 52.508805,43.0625 L 52.508805,43.1875 C 52.577441,43.231374 52.544167,42.856745 52.508805,43.0625 z M 39.758805,43.15625 L 39.790055,43.28125 L 39.790055,43.125 L 39.758805,43.125 L 39.758805,43.15625 z M 39.790055,43.28125 C 39.946181,43.624245 39.978167,43.023402 39.790055,43.28125 z M 40.821305,43.21875 C 40.908159,43.370867 40.983106,42.982989 40.821305,43.21875 z M 41.040055,43.3125 C 41.258923,43.327672 40.820117,43.225971 41.040055,43.3125 z M 40.977555,43.46875 L 40.977555,43.651557 C 41.222344,43.860011 41.147156,43.338486 40.977555,43.46875 z M 51.133805,43.71875 C 50.837888,43.959103 51.584088,44.031799 51.290055,43.75 C 51.34902,43.622361 51.158036,43.7128 51.133805,43.71875 z M 40.727555,43.90625 C 40.561654,44.098666 41.023029,43.938964 40.758805,43.9375 C 40.862996,43.898974 40.678849,43.75735 40.727555,43.90625 z M 50.727555,44 C 50.586873,44.136256 50.845087,44.561676 50.915055,44.25 C 50.939137,44.151557 50.869505,43.796257 50.727555,44 z M 50.165055,44.71875 C 50.400799,44.69286 50.468825,44.451459 50.571305,44.28125 C 50.435888,44.427083 50.300472,44.572917 50.165055,44.71875 z M 58.977555,44.375 C 58.830976,44.476014 59.237183,44.527426 59.071305,44.375 L 59.008805,44.34375 L 58.977555,44.375 z M 59.571305,44.875 C 59.51224,44.680393 59.374769,44.410839 59.133805,44.4375 C 59.279638,44.583333 59.425472,44.729167 59.571305,44.875 z M 58.852555,44.75 C 58.542271,44.739639 58.9568,45.205091 58.977555,44.90625 C 59.018163,44.83355 59.405215,44.727035 59.102555,44.71875 L 58.977555,44.71875 L 58.852555,44.75 z M 58.665055,45.1875 C 58.431529,45.26459 58.898581,45.54791 58.665055,45.625 C 58.923235,45.66687 58.755592,45.313451 58.852555,45.1875 L 58.758805,45.15625 L 58.665055,45.1875 z M 59.008805,45.6875 C 58.903376,45.660848 58.638375,45.72811 58.758805,45.875 C 58.561777,45.829534 58.400441,45.945376 58.258805,46.0625 C 58.498388,46 58.737972,45.9375 58.977555,45.875 C 58.863018,46.150202 59.532103,46.121144 59.258805,45.875 C 59.171156,45.853268 59.094828,45.470919 59.008805,45.6875 z M 58.165055,46.125 C 58.083308,46.270224 58.533479,46.29383 58.258805,46.1875 C 58.180206,46.177302 58.286737,46.011776 58.165055,46.125 z M 58.977555,46.25 C 58.871242,46.595011 59.578723,46.38541 59.196305,46.21875 L 59.133805,46.21875 L 58.977555,46.25 z"
         id="path56214"
         sodipodi:nodetypes="cccsccscccccc" />
      <path
         style="opacity:1;fill:url(#linearGradient56304);fill-opacity:1;fill-rule:nonzero;stroke:none;stroke-width:0.30000001;stroke-linecap:butt;stroke-linejoin:miter;stroke-miterlimit:4;stroke-dasharray:none;stroke-dashoffset:0;stroke-opacity:1"
         d="M 38.28125,40.75 L 34.75,44.5 L 34.78125,44.5 C 34.951838,44.550295 34.734146,44.603253 34.6875,44.5625 L 34.46875,44.8125 C 34.592871,44.919253 34.863184,44.990248 34.84375,44.75 C 35.039257,44.723736 34.981431,45.171601 34.78125,45 C 34.802727,45.213616 34.363659,44.919224 34.4375,45.21875 C 34.590524,45.47564 34.934461,45.495987 35.1875,45.59375 C 35.10504,45.733059 34.981082,46.143482 35.28125,46.09375 C 35.374915,46.185674 35.431959,46.297594 35.5,46.40625 L 35.625,46.28125 C 35.508211,46.171759 35.42679,45.897032 35.6875,46.03125 C 35.714793,46.091818 35.8068,46.05463 35.84375,46.0625 L 35.875,46.0625 L 40.8125,40.875 C 40.427048,40.842495 40.04149,40.814948 39.65625,40.78125 C 39.198364,40.764706 38.739738,40.748439 38.28125,40.75 z M 36.25,40.875 C 35.430905,40.943514 34.619299,41.025325 33.8125,41.1875 C 33.086142,41.266105 32.266369,41.113113 31.5625,41.3125 L 29.25,45.4375 C 29.66088,45.046973 30.098174,44.695466 30.625,44.46875 C 31.510306,44.099187 32.45793,44.378418 33.375,44.5 L 36.25,40.875 z M 42.03125,40.96875 L 36.09375,47.125 L 36.125,47.125 C 36.458993,47.060225 35.966475,47.552742 36.03125,47.21875 L 36.09375,47.125 L 35.9375,47.25 C 35.9941,47.367384 36.05214,47.486548 36.125,47.59375 C 35.903088,47.648686 36.31398,48.088309 36,48.03125 C 35.640687,48.56917 34.956443,48.932075 34.3125,48.9375 L 23.6875,59.875 C 23.911379,59.732583 24.192907,59.666099 24.40625,59.875 C 24.624444,59.928363 24.819429,59.991106 25.03125,60.0625 L 46.625,41.21875 C 45.088353,41.193297 43.563418,41.087176 42.03125,40.96875 z M 50.0625,41.21875 L 40.71875,48.96875 C 41.509195,48.748173 42.492763,49.173066 43.0625,48.375 C 43.265413,48.202743 43.504625,48.06507 43.71875,47.90625 L 50.5625,41.40625 C 50.390308,41.35807 50.229832,41.280283 50.0625,41.21875 z M 34.875,44.40625 C 34.877405,44.394372 34.906464,44.404731 34.9375,44.40625 C 34.970281,44.523016 34.867786,44.441885 34.875,44.40625 z M 35.25,45.9375 C 35.24963,45.924802 35.291623,45.931226 35.34375,45.9375 C 35.441132,46.070698 35.25111,45.975595 35.25,45.9375 z M 28.6875,46.46875 L 28.34375,47.0625 C 28.451879,47.23101 28.870514,46.902309 28.5625,46.8125 C 28.677862,46.738269 28.714297,46.59301 28.6875,46.46875 z M 29,47.09375 C 28.954984,47.071841 28.922836,47.080771 28.84375,47.125 C 29.027385,47.23197 29.083618,47.631645 29.34375,47.53125 C 29.183545,47.455566 29.135047,47.159478 29,47.09375 z M 29.40625,47.40625 C 29.379424,47.505097 29.410254,47.450092 29.4375,47.40625 C 29.430057,47.412136 29.41652,47.396685 29.40625,47.40625 z M 36.15625,47.46875 C 36.165382,47.456658 36.188488,47.464648 36.21875,47.46875 C 36.210452,47.499616 36.165317,47.489857 36.15625,47.5 C 36.151451,47.488686 36.147118,47.480842 36.15625,47.46875 z M 27.71875,48.21875 L 25,53.0625 C 25.127818,52.996913 25.365355,53.024243 25.25,53.1875 C 25.281934,53.414818 25.72318,53.249636 25.5,53.09375 C 25.455336,52.906995 25.859292,52.937021 25.6875,53.125 C 25.921242,53.085668 25.573598,52.607262 25.90625,52.75 C 25.968169,52.812944 25.902091,53.18756 26.03125,52.9375 C 26.145455,52.863579 26.514009,52.995144 26.40625,52.75 C 26.51947,52.641284 26.59867,52.840257 26.71875,52.78125 L 30.15625,48.5 C 29.336572,48.442213 28.536873,48.294593 27.71875,48.21875 z M 32.0625,48.4375 C 31.689934,48.472686 31.309073,48.542885 30.9375,48.53125 L 27.03125,52.65625 C 27.134897,52.59181 27.443915,52.662652 27.3125,52.84375 C 27.439725,52.703563 27.664066,53.05341 27.40625,52.96875 C 27.186408,53.071294 27.359599,53.57655 27.5625,53.34375 C 27.713464,53.561247 28.256537,53.344452 28.21875,53.71875 C 28.024,53.742595 27.959587,54.03878 28.125,54.125 C 28.131892,54.128592 28.148587,54.122136 28.15625,54.125 L 33.40625,48.625 C 33.38615,48.609986 33.363341,48.609999 33.34375,48.59375 C 32.929649,48.411784 32.49716,48.39645 32.0625,48.4375 z M 28.125,54.125 C 27.937905,54.086984 27.680734,54.278785 27.8125,54.46875 L 28.125,54.125 z M 27.8125,54.46875 C 27.605752,54.586143 27.204764,54.089926 27.15625,54.53125 C 27.163403,54.685506 27.312606,54.777074 27.4375,54.875 L 27.8125,54.46875 z M 38.34375,50.90625 L 26.53125,60.65625 C 26.778869,60.767273 27.033153,60.891521 27.28125,61 C 27.450441,60.98639 27.84312,61.206357 27.59375,61.375 C 27.730972,61.523539 27.863893,61.869109 28.125,61.71875 C 28.158191,61.94139 28.593376,61.722496 28.375,61.59375 C 28.620562,61.320208 28.98374,61.423384 29.21875,61.65625 L 40.4375,51.03125 C 40.352751,51.047066 40.277128,51.061089 40.1875,51.0625 C 39.610254,51.150451 38.880935,51.172832 38.34375,50.90625 z M 27,52.6875 L 26.65625,53.03125 C 26.660453,53.041289 26.65095,53.053023 26.65625,53.0625 C 26.71137,53.161063 26.825109,53.237054 26.9375,53.15625 C 27.093068,53.276842 27.392729,53.032205 27.21875,52.875 C 27.200134,53.09853 26.808053,52.888817 27.0625,52.8125 C 27.01537,52.762386 26.993009,52.716567 27,52.6875 z M 27.5625,52.96875 C 27.564341,52.95906 27.582072,52.980134 27.625,53 C 27.684598,53.128783 27.556978,52.99782 27.5625,52.96875 z M 27.53125,53.1875 C 27.53088,53.174802 27.572873,53.181226 27.625,53.1875 C 27.72238,53.320698 27.53236,53.225595 27.53125,53.1875 z M 27.5,53.5 L 27.34375,53.53125 L 27.40625,53.65625 L 27.5,53.5 z M 27.125,53.65625 C 27.087076,53.663767 27.03675,53.687283 27.03125,53.6875 C 27.01437,53.818842 27.323882,53.842211 27.15625,53.71875 C 27.188448,53.657216 27.162924,53.648733 27.125,53.65625 z M 29.65625,54.59375 C 29.662372,54.586411 29.721797,54.624553 29.8125,54.6875 C 29.916995,54.871259 29.637884,54.615767 29.65625,54.59375 z M 30.15625,54.8125 L 30.21875,54.84375 C 30.562288,55.003173 29.869307,54.935702 30.15625,54.8125 z M 27.09375,54.9375 C 27.056792,54.935606 27.035715,54.950425 27,55 C 27.282739,55.185964 26.817032,55.468429 26.6875,55.21875 C 25.838069,55.914761 24.855856,56.418711 23.96875,57.0625 C 23.151025,57.413431 22.751028,58.494201 23.1875,59.28125 C 23.197574,59.26934 23.206969,59.256522 23.21875,59.25 L 27.25,55.0625 C 27.218395,54.985505 27.157317,54.940757 27.09375,54.9375 z M 23.90625,59.90625 C 23.869609,59.914464 23.835779,59.932434 23.8125,59.9375 C 23.473895,59.967432 23.891965,60.544868 24,60.1875 L 23.90625,60.03125 C 23.899,59.973553 23.956689,59.980866 24,60 C 23.993959,59.984648 24.021674,59.971276 24,59.9375 C 23.982342,59.89958 23.942891,59.898036 23.90625,59.90625 z"
         transform="translate(10.552402,-18.770638)"
         id="path56277" />
    </g>
    <g
       id="ball_0"
       transform="matrix(1.3391737,0,0,1.339468,-57.868878,-21.017871)">
      <path
         transform="translate(1.4261835,2.1970524)"
         d="M 53.125349,19.520891 A 5.437326,5.437326 0 1 1 42.250697,19.520891 A 5.437326,5.437326 0 1 1 53.125349,19.520891 z"
         sodipodi:ry="5.437326"
         sodipodi:rx="5.437326"
         sodipodi:cy="19.520891"
         sodipodi:cx="47.688023"
         id="path3387"
         style="opacity:0.93782385;fill:url(#radialGradient3393);fill-opacity:1;stroke:#4d2600;stroke-width:0.22399412;stroke-linecap:round;stroke-linejoin:round;stroke-miterlimit:4;stroke-dasharray:none;stroke-dashoffset:0;stroke-opacity:0.59890107"
         sodipodi:type="arc" />
      <path
         id="path3397"
         d="M 52.713839,18.423662 C 52.968476,18.995516 53.11107,19.611369 53.11107,20.277405 C 53.111069,22.820871 51.046659,24.885283 48.503192,24.885283 C 47.105931,24.885283 45.852802,24.279519 45.007561,23.296359 C 45.707361,24.949959 47.363573,26.103458 49.271172,26.103457 C 51.814638,26.103457 53.879048,24.039046 53.879049,21.49558 C 53.879049,20.320426 53.438822,19.237891 52.713839,18.423662 z"
         style="opacity:0.67875647;fill:url(#radialGradient3418);fill-opacity:1;stroke:none;stroke-width:0.5;stroke-linecap:round;stroke-linejoin:round;stroke-miterlimit:4;stroke-dasharray:none;stroke-dashoffset:0;stroke-opacity:1;filter:url(#filter16292)" />
      <path
         id="path3414"
         d="M 49.153144,16.392578 C 47.579903,16.392578 46.155942,17.073164 45.162811,18.14234 C 45.154543,18.156946 45.147486,18.174298 45.139475,18.189001 C 44.842427,18.734218 44.723702,19.327541 44.836117,19.938763 C 45.135891,21.568686 46.955217,22.603648 48.919791,22.225118 C 49.563492,22.101094 50.147774,21.827271 50.623267,21.478553 C 49.646478,21.109796 48.912292,20.376419 48.733109,19.402169 C 48.532589,18.311907 49.096901,17.201668 50.06322,16.485899 C 49.767371,16.435996 49.463118,16.392578 49.153144,16.392578 z"
         style="opacity:0.53723408;fill:url(#linearGradient3415);fill-opacity:1;stroke:none;stroke-width:0.63541669;stroke-linecap:round;stroke-linejoin:round;stroke-miterlimit:4;stroke-dasharray:none;stroke-dashoffset:0;stroke-opacity:1;filter:url(#filter15319)" />
    </g>
    <g
       id="gridTile"
       transform="translate(13.216566,22.431786)">
      <rect
         y="0.45096102"
         x="17.584034"
         height="16"
         width="16"
         id="rect2412"
         style="opacity:1;fill:#ffffff;fill-opacity:0.19607843;fill-rule:nonzero;stroke:none;stroke-width:2;stroke-linecap:butt;stroke-linejoin:miter;stroke-miterlimit:4;stroke-dasharray:none;stroke-dashoffset:0;stroke-opacity:1" />
      <rect
         style="opacity:1;fill:#ffffff;fill-opacity:0.19607843;fill-rule:nonzero;stroke:none;stroke-width:2;stroke-linecap:butt;stroke-linejoin:miter;stroke-miterlimit:4;stroke-dasharray:none;stroke-dashoffset:0;stroke-opacity:1"
         id="rect56308"
         width="16"
         height="16"
         x="17.584034"
         y="0.45096102" />
      <rect
         y="-17.714228"
         x="18.467062"
         height="11.19863"
         width="11.19863"
         id="rect56310"
         style="opacity:1;fill:#ffffff;fill-opacity:0.19607843;fill-rule:nonzero;stroke:none;stroke-width:2;stroke-linecap:butt;stroke-linejoin:miter;stroke-miterlimit:4;stroke-dasharray:none;stroke-dashoffset:0;stroke-opacity:1"
         transform="matrix(0.7071068,0.7071068,-0.7071068,0.7071068,0,0)" />
      <rect
         transform="matrix(0.7071068,0.7071068,-0.7071068,0.7071068,0,0)"
         style="opacity:1;fill:#ffffff;fill-opacity:0.19607843;fill-rule:nonzero;stroke:none;stroke-width:2;stroke-linecap:butt;stroke-linejoin:miter;stroke-miterlimit:4;stroke-dasharray:none;stroke-dashoffset:0;stroke-opacity:1"
         id="rect56312"
         width="9.4838552"
         height="9.4838552"
         x="19.753145"
         y="-17.114058" />
      <rect
         y="0.93597269"
         x="18.069048"
         height="14.544965"
         width="14.544965"
         id="rect56314"
         style="opacity:1;fill:#ffffff;fill-opacity:0.19607843;fill-rule:nonzero;stroke:none;stroke-width:2;stroke-linecap:butt;stroke-linejoin:miter;stroke-miterlimit:4;stroke-dasharray:none;stroke-dashoffset:0;stroke-opacity:1" />
    </g>
    <g
       id="wallTile"
       transform="translate(20,0)">
      <rect
         style="fill:#2e3436;fill-opacity:0;fill-rule:nonzero;stroke:none;stroke-width:2;stroke-linecap:butt;stroke-linejoin:miter;stroke-miterlimit:4;stroke-dasharray:none;stroke-dashoffset:0;stroke-opacity:1"
         id="rect16409"
         width="14.199487"
         height="14.199487"
         x="18.484291"
         y="1.3512179" />
      <rect
         style="fill:none;fill-opacity:0.39215686999999999;fill-rule:nonzero;stroke:#2e3436;stroke-width:0.5;stroke-linecap:butt;stroke-linejoin:miter;stroke-miterlimit:4;stroke-dasharray:none;stroke-dashoffset:0;stroke-opacity:1"
         id="rect16437"
         width="12.858467"
         height="12.858467"
         x="19.1548"
         y="2.0217273" />
      <rect
         ry="0.4487904"
         rx="0.4487904"
         style="fill:#eeeeec;fill-opacity:1;fill-rule:nonzero;stroke:none;stroke-width:2;stroke-linecap:butt;stroke-linejoin:miter;stroke-miterlimit:4;stroke-dasharray:none;stroke-dashoffset:0;stroke-opacity:1"
         id="rect56154"
         width="12.858467"
         height="12.858467"
         x="19.1548"
         y="2.0217273" />
      <rect
         y="2.8071105"
         x="19.940184"
         height="11.287701"
         width="11.287701"
         id="rect56202"
         style="fill:#ffffff;fill-opacity:1;fill-rule:nonzero;stroke:#bfd9ff;stroke-width:0.29999999999999999;stroke-linecap:butt;stroke-linejoin:miter;stroke-miterlimit:4;stroke-dasharray:none;stroke-dashoffset:0;stroke-opacity:1"
         rx="0.4487904"
         ry="0.4487904" />
      <rect
         ry="0.4487904"
         rx="0.4487904"
         style="fill:#ffffff;fill-opacity:1;fill-rule:nonzero;stroke:none;stroke-width:0.29999999999999999;stroke-linecap:butt;stroke-linejoin:miter;stroke-miterlimit:4;stroke-dasharray:none;stroke-dashoffset:0;stroke-opacity:1"
         id="rect56204"
         width="11.287701"
         height="11.287701"
         x="19.940184"
         y="2.8071105" />
      <path
         transform="matrix(1.5333333,0,0,1.5333333,-44.027253,-3.0596735)"
         d="M 46.041707,7.5069356 A 0.6430406,0.6430406 0 1 1 44.755626,7.5069356 A 0.6430406,0.6430406 0 1 1 46.041707,7.5069356 z"
         sodipodi:ry="0.6430406"
         sodipodi:rx="0.6430406"
         sodipodi:cy="7.5069356"
         sodipodi:cx="45.398666"
         id="path56316"
         style="opacity:1;fill:none;fill-opacity:1;fill-rule:nonzero;stroke:url(#linearGradient56324);stroke-width:0.30000000999999998;stroke-linecap:butt;stroke-linejoin:miter;stroke-miterlimit:4;stroke-dasharray:none;stroke-dashoffset:0;stroke-opacity:1"
         sodipodi:type="arc" />
      <path
         sodipodi:type="arc"
         style="opacity:1;fill:#ff7e00;fill-opacity:1;fill-rule:nonzero;stroke:none;stroke-width:0.30000000999999998;stroke-linecap:butt;stroke-linejoin:miter;stroke-miterlimit:4;stroke-dasharray:none;stroke-dashoffset:0;stroke-opacity:1"
         id="path56306"
         sodipodi:cx="45.398666"
         sodipodi:cy="7.5069356"
         sodipodi:rx="0.6430406"
         sodipodi:ry="0.6430406"
         d="M 46.041707,7.5069356 A 0.6430406,0.6430406 0 1 1 44.755626,7.5069356 A 0.6430406,0.6430406 0 1 1 46.041707,7.5069356 z"
         transform="matrix(1.5333333,0,0,1.5333333,-44.027253,-3.0596735)" />
    </g>
    <g
       id="buttonBackground">
      <rect
         style="opacity:1;fill:none;fill-opacity:1;fill-rule:nonzero;stroke:#555753;stroke-width:0.30000001;stroke-linecap:butt;stroke-linejoin:miter;stroke-miterlimit:4;stroke-dasharray:none;stroke-dashoffset:0;stroke-opacity:1"
         id="rect42859"
         width="20.980951"
         height="12.229538"
         x="2.9171376"
         y="19.358879" />
      <rect
         y="19.358879"
         x="2.9171376"
         height="12.229538"
         width="20.980951"
         id="rect42857"
         style="opacity:1;fill:#ffffff;fill-opacity:1;fill-rule:nonzero;stroke:none;stroke-width:0.30000001;stroke-linecap:butt;stroke-linejoin:miter;stroke-miterlimit:4;stroke-dasharray:none;stroke-dashoffset:0;stroke-opacity:1" />
    </g>
    <g
       id="wallH"
       transform="translate(52.283058,2.8826991e-2)">
      <rect
         style="opacity:1;fill:#5e5e5e;fill-opacity:0;fill-rule:nonzero;stroke:none;stroke-width:2;stroke-linecap:butt;stroke-linejoin:miter;stroke-miterlimit:4;stroke-dasharray:none;stroke-dashoffset:0;stroke-opacity:1"
         id="rect42877"
         width="16"
         height="16"
         x="19.629372"
         y="0.45096102" />
      <path
         style="fill:#ff7e00;fill-opacity:1;fill-rule:evenodd;stroke:none;stroke-width:1px;stroke-linecap:butt;stroke-linejoin:miter;stroke-opacity:1"
         d="M 19.629372,7.450961 L 19.629372,9.450961 C 28.26769,9.450961 32.229729,9.450961 34.065373,9.450961 C 34.983194,9.450961 35.360501,9.450961 35.508973,9.450961 C 35.546091,9.450961 35.615986,9.450961 35.629273,9.450961 L 35.629273,8.450961 C 35.629273,8.450961 35.629496,7.450961 35.629273,7.450961 C 35.615986,7.450961 35.546091,7.450961 35.508973,7.450961 C 35.360501,7.450961 34.983194,7.450961 34.065373,7.450961 C 32.229729,7.450961 28.26769,7.450961 19.629372,7.450961 z"
         id="path42865" />
    </g>
    <g
       transform="translate(36.190424,2.8826991e-2)"
       id="wallEndLeft">
      <rect
         y="0.45096102"
         x="19.629372"
         height="16"
         width="16"
         id="rect42890"
         style="opacity:1;fill:#5e5e5e;fill-opacity:0;fill-rule:nonzero;stroke:none;stroke-width:2;stroke-linecap:butt;stroke-linejoin:miter;stroke-miterlimit:4;stroke-dasharray:none;stroke-dashoffset:0;stroke-opacity:1" />
      <path
         id="path42892"
         d="M 29.502761,7.450961 L 29.502761,9.450961 C 32.810486,9.450961 34.327604,9.450961 35.030496,9.450961 C 35.381942,9.450961 35.526417,9.450961 35.583269,9.450961 C 35.597482,9.450961 35.624246,9.450961 35.629334,9.450961 L 35.629334,8.450961 C 35.629334,8.450961 35.629419,7.450961 35.629334,7.450961 C 35.624246,7.450961 35.597482,7.450961 35.583269,7.450961 C 35.526417,7.450961 35.381942,7.450961 35.030496,7.450961 C 34.327604,7.450961 32.810486,7.450961 29.502761,7.450961 z"
         style="fill:#ff7e00;fill-opacity:1;fill-rule:evenodd;stroke:none;stroke-width:1px;stroke-linecap:butt;stroke-linejoin:miter;stroke-opacity:1" />
      <path
         sodipodi:type="arc"
         style="opacity:1;fill:#ffff99;fill-opacity:1;fill-rule:nonzero;stroke:#ff7e00;stroke-width:0.13291025;stroke-linecap:butt;stroke-linejoin:miter;stroke-miterlimit:4;stroke-dasharray:none;stroke-dashoffset:0;stroke-opacity:1"
         id="path42871"
         sodipodi:cx="36.576416"
         sodipodi:cy="25.080957"
         sodipodi:rx="1.0097784"
         sodipodi:ry="1.0097784"
         d="M 37.586194,25.080957 A 1.0097784,1.0097784 0 1 1 35.566638,25.080957 A 1.0097784,1.0097784 0 1 1 37.586194,25.080957 z"
         transform="matrix(2.2571622,0,0,2.2571622,-54.929532,-48.160829)" />
    </g>
    <g
       id="wallEndRight"
       transform="matrix(-1,0,0,1,123.65401,2.8826991e-2)">
      <rect
         style="opacity:1;fill:#5e5e5e;fill-opacity:0;fill-rule:nonzero;stroke:none;stroke-width:2;stroke-linecap:butt;stroke-linejoin:miter;stroke-miterlimit:4;stroke-dasharray:none;stroke-dashoffset:0;stroke-opacity:1"
         id="rect42899"
         width="16"
         height="16"
         x="19.629372"
         y="0.45096102" />
      <path
         style="fill:#ff7e00;fill-opacity:1;fill-rule:evenodd;stroke:none;stroke-width:1px;stroke-linecap:butt;stroke-linejoin:miter;stroke-opacity:1"
         d="M 29.502761,7.450961 L 29.502761,9.450961 C 32.810486,9.450961 34.327604,9.450961 35.030496,9.450961 C 35.381942,9.450961 35.526417,9.450961 35.583269,9.450961 C 35.597482,9.450961 35.624246,9.450961 35.629334,9.450961 L 35.629334,8.450961 C 35.629334,8.450961 35.629419,7.450961 35.629334,7.450961 C 35.624246,7.450961 35.597482,7.450961 35.583269,7.450961 C 35.526417,7.450961 35.381942,7.450961 35.030496,7.450961 C 34.327604,7.450961 32.810486,7.450961 29.502761,7.450961 z"
         id="path42901" />
      <path
         transform="matrix(2.2571622,0,0,2.2571622,-54.929532,-48.160829)"
         d="M 37.586194,25.080957 A 1.0097784,1.0097784 0 1 1 35.566638,25.080957 A 1.0097784,1.0097784 0 1 1 37.586194,25.080957 z"
         sodipodi:ry="1.0097784"
         sodipodi:rx="1.0097784"
         sodipodi:cy="25.080957"
         sodipodi:cx="36.576416"
         id="path42903"
         style="opacity:1;fill:#ffff99;fill-opacity:1;fill-rule:nonzero;stroke:#ff7e00;stroke-width:0.13291025;stroke-linecap:butt;stroke-linejoin:miter;stroke-miterlimit:4;stroke-dasharray:none;stroke-dashoffset:0;stroke-opacity:1"
         sodipodi:type="arc" />
    </g>
    <g
       transform="matrix(0,1,-1,0,97.114801,-2.5443391)"
       id="wallV">
      <rect
         y="0.45096102"
         x="19.629372"
         height="16"
         width="16"
         id="rect42955"
         style="opacity:1;fill:#5e5e5e;fill-opacity:0;fill-rule:nonzero;stroke:none;stroke-width:2;stroke-linecap:butt;stroke-linejoin:miter;stroke-miterlimit:4;stroke-dasharray:none;stroke-dashoffset:0;stroke-opacity:1" />
      <path
         id="path42957"
         d="M 19.629372,7.450961 L 19.629372,9.450961 C 28.26769,9.450961 32.229729,9.450961 34.065373,9.450961 C 34.983194,9.450961 35.360501,9.450961 35.508973,9.450961 C 35.546091,9.450961 35.615986,9.450961 35.629273,9.450961 L 35.629273,8.450961 C 35.629273,8.450961 35.629496,7.450961 35.629273,7.450961 C 35.615986,7.450961 35.546091,7.450961 35.508973,7.450961 C 35.360501,7.450961 34.983194,7.450961 34.065373,7.450961 C 32.229729,7.450961 28.26769,7.450961 19.629372,7.450961 z"
         style="fill:#ff7e00;fill-opacity:1;fill-rule:evenodd;stroke:none;stroke-width:1px;stroke-linecap:butt;stroke-linejoin:miter;stroke-opacity:1" />
    </g>
    <g
       id="wallEndUp"
       transform="matrix(0,1,-1,0,81.02217,-2.5443389)">
      <rect
         style="opacity:1;fill:#5e5e5e;fill-opacity:0;fill-rule:nonzero;stroke:none;stroke-width:2;stroke-linecap:butt;stroke-linejoin:miter;stroke-miterlimit:4;stroke-dasharray:none;stroke-dashoffset:0;stroke-opacity:1"
         id="rect42961"
         width="16"
         height="16"
         x="19.629372"
         y="0.45096102" />
      <path
         style="fill:#ff7e00;fill-opacity:1;fill-rule:evenodd;stroke:none;stroke-width:1px;stroke-linecap:butt;stroke-linejoin:miter;stroke-opacity:1"
         d="M 29.502761,7.450961 L 29.502761,9.450961 C 32.810486,9.450961 34.327604,9.450961 35.030496,9.450961 C 35.381942,9.450961 35.526417,9.450961 35.583269,9.450961 C 35.597482,9.450961 35.624246,9.450961 35.629334,9.450961 L 35.629334,8.450961 C 35.629334,8.450961 35.629419,7.450961 35.629334,7.450961 C 35.624246,7.450961 35.597482,7.450961 35.583269,7.450961 C 35.526417,7.450961 35.381942,7.450961 35.030496,7.450961 C 34.327604,7.450961 32.810486,7.450961 29.502761,7.450961 z"
         id="path42963" />
      <path
         transform="matrix(2.2571622,0,0,2.2571622,-54.929532,-48.160829)"
         d="M 37.586194,25.080957 A 1.0097784,1.0097784 0 1 1 35.566638,25.080957 A 1.0097784,1.0097784 0 1 1 37.586194,25.080957 z"
         sodipodi:ry="1.0097784"
         sodipodi:rx="1.0097784"
         sodipodi:cy="25.080957"
         sodipodi:cx="36.576416"
         id="path42965"
         style="opacity:1;fill:#ffff99;fill-opacity:1;fill-rule:nonzero;stroke:#ff7e00;stroke-width:0.13291025;stroke-linecap:butt;stroke-linejoin:miter;stroke-miterlimit:4;stroke-dasharray:none;stroke-dashoffset:0;stroke-opacity:1"
         sodipodi:type="arc" />
    </g>
    <g
       transform="matrix(0,-1,-1,0,113.22701,52.714405)"
       id="wallEndDown">
      <rect
         y="0.45096102"
         x="19.629372"
         height="16"
         width="16"
         id="rect42969"
         style="opacity:1;fill:#5e5e5e;fill-opacity:0;fill-rule:nonzero;stroke:none;stroke-width:2;stroke-linecap:butt;stroke-linejoin:miter;stroke-miterlimit:4;stroke-dasharray:none;stroke-dashoffset:0;stroke-opacity:1" />
      <path
         id="path42971"
         d="M 29.502761,7.450961 L 29.502761,9.450961 C 32.810486,9.450961 34.327604,9.450961 35.030496,9.450961 C 35.381942,9.450961 35.526417,9.450961 35.583269,9.450961 C 35.597482,9.450961 35.624246,9.450961 35.629334,9.450961 L 35.629334,8.450961 C 35.629334,8.450961 35.629419,7.450961 35.629334,7.450961 C 35.624246,7.450961 35.597482,7.450961 35.583269,7.450961 C 35.526417,7.450961 35.381942,7.450961 35.030496,7.450961 C 34.327604,7.450961 32.810486,7.450961 29.502761,7.450961 z"
         style="fill:#ff7e00;fill-opacity:1;fill-rule:evenodd;stroke:none;stroke-width:1px;stroke-linecap:butt;stroke-linejoin:miter;stroke-opacity:1" />
      <path
         sodipodi:type="arc"
         style="opacity:1;fill:#ffff99;fill-opacity:1;fill-rule:nonzero;stroke:#ff7e00;stroke-width:0.13291025;stroke-linecap:butt;stroke-linejoin:miter;stroke-miterlimit:4;stroke-dasharray:none;stroke-dashoffset:0;stroke-opacity:1"
         id="path42973"
         sodipodi:cx="36.576416"
         sodipodi:cy="25.080957"
         sodipodi:rx="1.0097784"
         sodipodi:ry="1.0097784"
         d="M 37.586194,25.080957 A 1.0097784,1.0097784 0 1 1 35.566638,25.080957 A 1.0097784,1.0097784 0 1 1 37.586194,25.080957 z"
         transform="matrix(2.2571622,0,0,2.2571622,-54.929532,-48.160829)" />
    </g>
  </g>
</svg>
