/* XPM */
static char * lo_16_kjezz_xpm[] = {
"16 16 17 1",
" 	c None",
".	c #FE0204",
"+	c #FE8684",
"@	c #F04A4A",
"#	c #E1E1E1",
"$	c #F32627",
"%	c #F9F4F4",
"&	c #FE6264",
"*	c #F4302F",
"=	c #FEFEFC",
"-	c #FEAAAC",
";	c #DF5959",
">	c #F87878",
",	c #F9DFE1",
"'	c #F9BBB9",
")	c #F91210",
"!	c #FE9898",
"     #%==%'     ",
"    ====%-..$   ",
"   #====+....$  ",
"  =====').....; ",
" #====,*....... ",
" ====%&........;",
" ====!.........@",
"#===%*.........*",
" %==!..........*",
" ==,@..........@",
" %='........... ",
"  =>..........$ ",
"  #@.........)  ",
"   >........)   ",
"    ;)....$     ",
"                "};
