/* XPM */
static char * hi_16_kjezz_xpm[] = {
"32 32 102 2",
"  	c None",
". 	c #E4E4E4",
"+ 	c #F9F9F9",
"@ 	c #FCFCFC",
"# 	c #F8F8F8",
"$ 	c #F2F2F2",
"% 	c #EDEDED",
"& 	c #EAEAEA",
"* 	c #EEEEEE",
"= 	c #FFFFFF",
"- 	c #FFF6F6",
"; 	c #FFA1A1",
"> 	c #FF5A5A",
", 	c #FB3838",
"' 	c #DE5252",
") 	c #F7F7F7",
"! 	c #FFF2F2",
"~ 	c #FF8282",
"{ 	c #FF0101",
"] 	c #FF0000",
"^ 	c #F91111",
"/ 	c #FFECEC",
"( 	c #FF7171",
"_ 	c #FF0303",
": 	c #FF0202",
"< 	c #FE0606",
"[ 	c #DC5A5A",
"} 	c #FEFEFE",
"| 	c #FFE4E4",
"1 	c #FF6262",
"2 	c #FF0505",
"3 	c #FAFAFA",
"4 	c #FFEDED",
"5 	c #FF4A4A",
"6 	c #FF0707",
"7 	c #FF0606",
"8 	c #FF0404",
"9 	c #FD0E0E",
"0 	c #FFFBFB",
"a 	c #FF8A8A",
"b 	c #FF0808",
"c 	c #F12A2A",
"d 	c #F5F5F5",
"e 	c #FFC5C5",
"f 	c #DC5D5D",
"g 	c #FFE0E0",
"h 	c #FF3838",
"i 	c #FC0909",
"j 	c #FFF7F7",
"k 	c #FF6E6E",
"l 	c #ED2D2D",
"m 	c #FFA8A8",
"n 	c #FC0808",
"o 	c #FFCBCB",
"p 	c #E3E3E3",
"q 	c #FFFAFA",
"r 	c #FF5454",
"s 	c #FFC3C3",
"t 	c #FF6666",
"u 	c #FFC7C7",
"v 	c #DE5454",
"w 	c #F3F3F3",
"x 	c #FFFDFD",
"y 	c #FF6B6B",
"z 	c #E63F3F",
"A 	c #EBEBEB",
"B 	c #FFBEBE",
"C 	c #E44444",
"D 	c #E5E5E5",
"E 	c #FFEEEE",
"F 	c #FF7777",
"G 	c #DCDCDC",
"H 	c #FF2A2A",
"I 	c #FA0E0E",
"J 	c #FF8989",
"K 	c #E54141",
"L 	c #EAE5E5",
"M 	c #FF5757",
"N 	c #FBF7F7",
"O 	c #FFE2E2",
"P 	c #FF3535",
"Q 	c #FB0B0B",
"R 	c #FFBABA",
"S 	c #F1EEEE",
"T 	c #FF9292",
"U 	c #DF4F4F",
"V 	c #FDFBFB",
"W 	c #FF0D0D",
"X 	c #EB3333",
"Y 	c #FD3737",
"Z 	c #EC3232",
"` 	c #EF2B2B",
" .	c #FE0909",
"..	c #E93F3F",
"+.	c #FB1414",
"@.	c #E25454",
"#.	c #DC5959",
"$.	c #DF5151",
"%.	c #E34A4A",
"&.	c #E54545",
"*.	c #E93D3D",
"=.	c #EA3939",
"                        . + @ + # $ % & .                       ",
"                    * = = = = = = = = - ; > , '                 ",
"                ) = = = = = = = = = ! ~ { ] ] ] ^               ",
"              = = = = = = = = = = / ( _ : { ] ] ] < [           ",
"            } = = = = = = = = = | 1 2 _ : { { ] ] ] ]           ",
"          3 = = = = = = = = = 4 5 6 7 8 : { { ] ] ] ] 9         ",
"        # = = = = = = = = = 0 a b b 7 8 _ { { { ] ] ] ] c       ",
"      d = = = = = = = = = = e b b 6 6 2 8 : { ] ] { ] ] ] f     ",
"      = = = = = = = = = = g h 6 6 7 7 8 _ : { ] ] ] ] ] ] i     ",
"    . = = = = = = = = = j k 2 7 7 2 2 _ : : { ] ] ] ] ] ] ] l   ",
"    + = = = = = = = = = m _ 8 8 8 8 _ : : { ] { ] ] ] ] ] ] n   ",
"    = = = = = = = = = o { : _ _ _ _ _ : { { ] ] ] ] ] ] ] ] ]   ",
"  p = = = = = = = = q r { { : : : : { { ] { ] ] ] ] ] ] ] ] ]   ",
"  # = = = = = = = = s { ] { { { { { { { ] ] { ] ] ] ] ] ] ] ]   ",
"  = = = = = = = = 0 t ] ] { { ] { ] ] ] { ] ] ] ] ] ] ] ] ] ]   ",
"  3 = = = = = = = u ] ] ] ] { { ] ] ] { ] ] ] ] ] ] ] ] ] ] ] v ",
"  w = = = = = = x y ] ] ] ] ] ] ] ] ] ] ] ] ] ] ] ] ] ] ] ] ] z ",
"  A = = = = = = B ] ] ] ] ] ] ] ] ] ] ] ] ] ] ] ] ] ] ] ] ] ] C ",
"  D = = = = = E F ] ] ] ] ] ] ] ] ] ] ] ] ] ] ] ] ] ] ] ] ] ]   ",
"  G = = = = = o H ] ] ] ] ] ] ] ] ] ] ] ] ] ] ] ] ] ] ] ] ] I   ",
"    = = = = = J ] ] ] ] ] ] ] ] ] ] ] ] ] ] ] ] ] ] ] ] ] ] K   ",
"    L = = = = M ] ] ] ] ] ] ] ] ] ] ] ] ] ] ] ] ] ] ] ] ] ]     ",
"      N = = O P ] ] ] ] ] ] ] ] ] ] ] ] ] ] ] ] ] ] ] ] ] Q     ",
"        = = R ] ] ] ] ] ] ] ] ] ] ] ] ] ] ] ] ] ] ] ] ] ]       ",
"        S = T ] ] ] ] ] ] ] ] ] ] ] ] ] ] ] ] ] ] ] ] ] U       ",
"          V F ] ] ] ] ] ] ] ] ] ] ] ] ] ] ] ] ] ] ] ] K         ",
"            R W ] ] { { { ] { { { { { ] ] ] ] ] ] ] X           ",
"              Y ] ] ] { { _ _ _ 8 8 8 : { ] { ] { Z             ",
"                ` ] ] { { _ 2 7 7 7 2 _ : {  ...                ",
"                    l 8 : _ 2 6 b b 2 _ +.@.                    ",
"                          #.$.%.&.*.=.                          ",
"                                                                "};
